<svg width="14" height="16" viewBox="0 0 14 16" fill="none" xmlns="http://www.w3.org/2000/svg">
<path d="M5.02719 14.2123C4.7302 14.501 4.72351 14.9758 5.01225 15.2728C5.30099 15.5698 5.77582 15.5765 6.07281 15.2877L5.55 14.75L5.02719 14.2123ZM12.75 7.75L13.2728 8.28775C13.4181 8.14654 13.5 7.95258 13.5 7.75C13.5 7.54742 13.4181 7.35346 13.2728 7.21225L12.75 7.75ZM6.07281 0.212254C5.77582 -0.0764856 5.30099 -0.0697975 5.01225 0.227191C4.72351 0.52418 4.7302 0.999007 5.02719 1.28775L5.55 0.75L6.07281 0.212254ZM0.227206 13.0452C-0.0697908 13.334 -0.0764923 13.8088 0.212239 14.1058C0.50097 14.4028 0.975796 14.4095 1.27279 14.1208L0.75 13.583L0.227206 13.0452ZM6.75 7.75L7.27279 8.28776C7.41805 8.14655 7.5 7.95258 7.5 7.75C7.5 7.54742 7.41805 7.35345 7.27279 7.21224L6.75 7.75ZM1.27279 1.37924C0.975796 1.09051 0.50097 1.09721 0.212239 1.39421C-0.0764923 1.6912 -0.0697908 2.16603 0.227206 2.45476L0.75 1.917L1.27279 1.37924ZM5.55 14.75L6.07281 15.2877L13.2728 8.28775L12.75 7.75L12.2272 7.21225L5.02719 14.2123L5.55 14.75ZM12.75 7.75L13.2728 7.21225L6.07281 0.212254L5.55 0.75L5.02719 1.28775L12.2272 8.28775L12.75 7.75ZM0.75 13.583L1.27279 14.1208L7.27279 8.28776L6.75 7.75L6.22721 7.21224L0.227206 13.0452L0.75 13.583ZM6.75 7.75L7.27279 7.21224L1.27279 1.37924L0.75 1.917L0.227206 2.45476L6.22721 8.28776L6.75 7.75Z" fill="#2F2D39"/>
</svg>
