<svg width="51" height="46" viewBox="0 0 51 46" fill="none" xmlns="http://www.w3.org/2000/svg">
<path d="M49.3515 15.4551C48.9218 14.3535 48.2617 13.3653 47.4023 12.5059L37.4335 2.53713C36.5741 1.67775 35.5819 1.02543 34.5038 0.615232C32.3632 -0.205078 29.9921 -0.205078 27.8241 0.615232C26.7343 1.02539 25.746 1.67383 24.8749 2.53713L24.2148 3.19729L23.5546 2.53713C22.6952 1.67775 21.703 1.02543 20.6249 0.615232C18.4843 -0.205078 16.1054 -0.205078 13.9452 0.615232C12.8554 1.02539 11.8671 1.67383 10.996 2.53713L2.6171 10.916C2.06632 11.4668 1.6171 12.0371 1.2773 12.6074C0.42964 14.0254 0 15.5762 0 17.1972C0 18.4472 0.249999 19.6855 0.730469 20.8886C1.05078 21.6777 1.42969 22.4003 1.87887 23.037C2.11715 23.3886 2.50778 23.6073 2.93747 23.6464C3.37888 23.6972 3.80856 23.5253 4.11717 23.2167L5.14837 22.1855C5.63665 21.6972 5.72649 20.9238 5.34759 20.3652C5.10931 19.9941 4.88665 19.5957 4.68743 19.1738C4.40618 18.5644 4.27727 17.9238 4.31634 17.2832C4.34759 16.6113 4.46478 16.002 4.64446 15.4746C4.82415 14.9746 5.15618 14.4746 5.61321 14.0137L14.082 5.54492C14.5117 5.11523 15.0117 4.79492 15.5625 4.57617C16.7617 4.10742 17.9531 4.14648 19.1641 4.6543C19.6329 4.85352 20.0743 5.1543 20.4649 5.55274L28.4337 13.5215C28.6954 13.7833 28.8751 14.0215 28.9728 14.2403C29.0743 14.4512 29.1212 14.6387 29.1212 14.7793C29.1212 15.1387 28.961 15.4708 28.6212 15.8105C28.0196 16.4121 27.422 16.4121 26.7814 16.1113C26.4806 15.9707 26.2033 15.7598 25.9533 15.5098L20.5236 10.0801C19.9533 9.50975 19.0119 9.50975 18.4455 10.0801L6.66049 21.8651C6.14877 22.3846 5.75033 23.0057 5.48079 23.6932C5.21126 24.3846 5.07063 25.0838 5.07063 25.7713C5.07063 27.1932 5.57063 28.4315 6.53943 29.451C7.43006 30.3728 8.55113 30.9705 9.86753 31.2127C10.1058 32.3846 10.6488 33.4119 11.4691 34.2713C12.2972 35.1424 13.3285 35.701 14.5472 35.9432C14.7855 37.1541 15.3363 38.1932 16.1878 39.0448C17.0277 39.8846 18.0667 40.4354 19.2894 40.6737C19.5394 41.9628 20.1488 43.0839 21.1097 43.9823C22.1605 44.9705 23.3792 45.4823 24.7386 45.4823C25.4691 45.4823 26.18 45.3416 26.848 45.0526C27.5199 44.7713 28.1292 44.3612 28.6488 43.8338L47.4188 25.0638C48.2782 24.2044 48.9383 23.224 49.368 22.1419C49.7977 21.0716 50.0165 19.9505 50.0165 18.8138C50.0008 17.6771 49.7821 16.5443 49.3524 15.4544L49.3515 15.4551ZM23.6285 39.5171C23.6793 39.3687 23.7691 39.2281 23.898 39.0953L30.8863 32.107C31.4567 31.5366 31.4567 30.5953 30.8863 30.0289L29.9371 29.0796C29.6481 28.7906 29.277 28.6499 28.898 28.6499C28.5191 28.6499 28.148 28.7906 27.8589 29.0796L20.8706 36.0679C20.73 36.2086 20.6011 36.2984 20.48 36.3492C20.1089 36.4976 19.5894 36.4273 19.23 36.0679C18.9917 35.8297 18.8706 35.5562 18.8706 35.2476C18.8706 35.0757 18.9019 34.8961 18.9722 34.7164C19.0425 34.5445 19.1206 34.4078 19.2222 34.3062L26.1636 27.3648C26.7339 26.7945 26.7339 25.8531 26.1636 25.2867L25.1987 24.3375C24.6402 23.7789 23.6793 23.7789 23.1207 24.3375L16.1324 31.3258C16.023 31.4352 15.9019 31.5172 15.7534 31.5875C15.3238 31.7867 14.855 31.6891 14.4917 31.3258C14.2535 31.0875 14.1324 30.8141 14.1324 30.5055C14.1324 30.3336 14.1636 30.1656 14.2222 29.9938C14.273 29.8453 14.3628 29.7047 14.4917 29.5719L21.4331 22.6305C22.0034 22.0602 22.0034 21.1188 21.4331 20.5524L20.4839 19.6032C19.9136 19.0329 18.9722 19.0329 18.4058 19.6032L11.4175 26.5915C11.3081 26.7009 11.1558 26.8102 10.9956 26.9001C10.5738 27.1305 10.0659 27.0016 9.73393 26.6813C9.51518 26.4626 9.40582 26.193 9.40582 25.8532C9.40582 25.6735 9.43707 25.5134 9.48394 25.3649C9.53472 25.2243 9.62456 25.0954 9.76519 24.9548L19.5035 15.2165L23.234 18.947C23.7848 19.4977 24.3942 19.9352 25.0621 20.2361C25.734 20.5446 26.5816 20.697 27.5738 20.697C29.1129 20.697 30.4957 20.1072 31.6754 18.9353C32.8668 17.7634 33.4645 16.3962 33.4645 14.8572C33.4645 13.9588 33.2535 13.1267 32.8434 12.3689C32.4528 11.6501 32.0036 11.0095 31.484 10.447L27.3121 6.22819L27.9723 5.56803C28.4019 5.13834 28.9019 4.80631 29.4528 4.58756C30.652 4.11881 31.8434 4.15787 33.0544 4.66569C33.5231 4.86491 33.9645 5.16569 34.3552 5.56413L44.3862 15.5951C44.7768 15.9857 45.0776 16.4232 45.2768 16.8959C45.5463 17.5365 45.6869 18.1771 45.6869 18.8178C45.6869 19.3686 45.5776 19.9389 45.3588 20.4975C45.1401 21.0483 44.8198 21.5483 44.3783 21.978L25.6013 40.794C25.4998 40.8956 25.3631 40.9737 25.1912 41.044C25.0115 41.1143 24.8513 41.1534 24.7302 41.1534C24.3396 41.1534 24.0506 41.0518 23.8513 40.8526C23.6521 40.6534 23.5506 40.3644 23.5506 39.9737C23.5388 39.8448 23.5699 39.6851 23.6285 39.5171Z" fill="white"/>
</svg>
