<svg width="29" height="31" viewBox="0 0 29 31" fill="none" xmlns="http://www.w3.org/2000/svg">
<path fill-rule="evenodd" clip-rule="evenodd" d="M16.1199 5.94629H7.71994C4.00862 5.94629 1 8.95491 1 12.6662V22.7461C1 26.4575 4.00862 29.4661 7.71994 29.4661H16.1199C19.8312 29.4661 22.8398 26.4575 22.8398 22.7461V12.6662C22.8398 8.95491 19.8312 5.94629 16.1199 5.94629Z" stroke="#2F2D39" stroke-width="2" stroke-linecap="round" stroke-linejoin="round"/>
<path d="M16.9608 13.666C17.5131 13.666 17.9608 13.2183 17.9608 12.666C17.9608 12.1137 17.5131 11.666 16.9608 11.666V12.666V13.666ZM6.88086 11.666C6.32857 11.666 5.88086 12.1137 5.88086 12.666C5.88086 13.2183 6.32857 13.666 6.88086 13.666V12.666V11.666ZM16.9608 18.706C17.5131 18.706 17.9608 18.2583 17.9608 17.706C17.9608 17.1537 17.5131 16.706 16.9608 16.706V17.706V18.706ZM6.88086 16.706C6.32857 16.706 5.88086 17.1537 5.88086 17.706C5.88086 18.2583 6.32857 18.706 6.88086 18.706V17.706V16.706ZM11.9208 23.746C12.4731 23.746 12.9208 23.2983 12.9208 22.746C12.9208 22.1937 12.4731 21.746 11.9208 21.746V22.746V23.746ZM6.88086 21.746C6.32857 21.746 5.88086 22.1937 5.88086 22.746C5.88086 23.2983 6.32857 23.746 6.88086 23.746V22.746V21.746ZM16.9608 12.666V11.666H6.88086V12.666V13.666H16.9608V12.666ZM16.9608 17.706V16.706H6.88086V17.706V18.706H16.9608V17.706ZM11.9208 22.746V21.746H6.88086V22.746V23.746H11.9208V22.746Z" fill="#2F2D39"/>
<path fill-rule="evenodd" clip-rule="evenodd" d="M27.8808 3.95761C27.9858 9.70736 24.5561 12.1534 22.6116 12.7305C22.4828 12.7688 22.3456 12.7688 22.2168 12.7305C20.3041 12.1635 16.9727 9.78968 16.9609 4.24405C16.9725 3.76483 17.242 3.32921 17.6657 3.10502C20.6258 1.43344 22.0496 1 22.4116 1C22.7737 1 24.31 1.46116 27.4667 3.26798C27.7166 3.40882 27.874 3.67082 27.8808 3.95761Z" fill="white" stroke="#2F2D39" stroke-width="2" stroke-linecap="round" stroke-linejoin="round"/>
</svg>
