<svg width="51" height="51" viewBox="0 0 51 51" fill="none" xmlns="http://www.w3.org/2000/svg">
<path fill-rule="evenodd" clip-rule="evenodd" d="M18.2869 15.7085C16.0624 19.0468 14.0614 22.3885 12.8325 24.5801L9.74713 21.3765C7.82778 19.3491 7.82778 16.1751 9.74713 14.1477C10.6556 13.1948 11.9135 12.6536 13.2301 12.6494H20.4095C19.6932 13.6319 18.9802 14.657 18.2869 15.7085Z" stroke="white" stroke-width="5" stroke-linecap="round" stroke-linejoin="round"/>
<path fill-rule="evenodd" clip-rule="evenodd" d="M35.2935 32.7125C31.9551 34.9369 28.6135 36.938 26.4219 38.1669L29.6255 41.2522C31.6529 43.1716 34.8269 43.1716 36.8542 41.2522C37.8072 40.3438 38.3483 39.0859 38.3526 37.7693V30.5898C37.3701 31.3061 36.3449 32.0192 35.2935 32.7125Z" stroke="white" stroke-width="5" stroke-linecap="round" stroke-linejoin="round"/>
<path d="M11.8879 31.21C12.864 30.2335 12.8636 28.6506 11.8871 27.6745C10.9106 26.6984 9.32768 26.6987 8.35158 27.6753L10.1197 29.4427L11.8879 31.21ZM0.731852 35.2983C-0.244248 36.2748 -0.243907 37.8577 0.732614 38.8338C1.70914 39.8099 3.29205 39.8096 4.26815 38.8331L2.5 37.0657L0.731852 35.2983ZM17.6032 36.9309C18.5791 35.9542 18.5784 34.3713 17.6016 33.3954C16.6249 32.4195 15.042 32.4202 14.0661 33.3969L15.8346 35.1639L17.6032 36.9309ZM10.2612 37.2051C9.28528 38.1819 9.28596 39.7648 10.2627 40.7407C11.2394 41.7166 12.8223 41.7159 13.7982 40.7391L12.0297 38.9721L10.2612 37.2051ZM14.5977 22.7966C13.6202 21.8215 12.0373 21.8234 11.0621 22.8009C10.087 23.7784 10.0889 25.3613 11.0664 26.3364L12.832 24.5665L14.5977 22.7966ZM19.6402 31.3583L21.4101 29.5926L21.4058 29.5884L19.6402 31.3583ZM24.662 39.932C25.6371 40.9095 27.22 40.9114 28.1975 39.9363C29.175 38.9612 29.1769 37.3783 28.2018 36.4008L26.4319 38.1664L24.662 39.932ZM18.3363 11.2347C17.5662 12.3807 17.8709 13.934 19.0169 14.7041C20.1629 15.4742 21.7162 15.1695 22.4863 14.0235L20.4113 12.6291L18.3363 11.2347ZM26.3848 5.62708L24.7868 3.70448C24.7507 3.73452 24.7154 3.76559 24.681 3.79762L26.3848 5.62708ZM48.1926 2.80787L50.6802 2.56C50.5622 1.37532 49.6251 0.438234 48.4404 0.320193L48.1926 2.80787ZM45.3734 24.6189L47.2028 26.3227C47.2351 26.2881 47.2663 26.2526 47.2966 26.2162L45.3734 24.6189ZM36.977 28.5174C35.831 29.2875 35.5262 30.8408 36.2963 31.9868C37.0664 33.1328 38.6197 33.4376 39.7657 32.6675L38.3714 30.5925L36.977 28.5174ZM23.3267 42.6481C24.3032 41.672 24.3035 40.0891 23.3274 39.1126C22.3513 38.1361 20.7684 38.1357 19.7919 39.1118L21.5593 40.88L23.3267 42.6481ZM12.1689 46.7315C11.1924 47.7076 11.192 49.2906 12.1681 50.2671C13.1442 51.2436 14.7271 51.2439 15.7036 50.2678L13.9363 48.4997L12.1689 46.7315ZM41.4982 13.0359C42.4745 12.0596 42.4745 10.4767 41.4982 9.50035C40.5219 8.52404 38.939 8.52404 37.9626 9.50035L39.7304 11.2681L41.4982 13.0359ZM33.8981 13.5649C32.9218 14.5412 32.9218 16.1241 33.8981 17.1004C34.8744 18.0767 36.4574 18.0767 37.4337 17.1004L35.6659 15.3326L33.8981 13.5649ZM10.1197 29.4427L8.35158 27.6753L0.731852 35.2983L2.5 37.0657L4.26815 38.8331L11.8879 31.21L10.1197 29.4427ZM15.8346 35.1639L14.0661 33.3969L10.2612 37.2051L12.0297 38.9721L13.7982 40.7391L17.6032 36.9309L15.8346 35.1639ZM12.832 24.5665L11.0664 26.3364L17.8745 33.1282L19.6402 31.3583L21.4058 29.5884L14.5977 22.7966L12.832 24.5665ZM19.6402 31.3583L17.8703 33.1239L24.662 39.932L26.4319 38.1664L28.2018 36.4008L21.4101 29.5926L19.6402 31.3583ZM20.4113 12.6291L22.4863 14.0235C24.0964 11.6274 25.9762 9.424 28.0887 7.45653L26.3848 5.62708L24.681 3.79762C22.2886 6.02579 20.1597 8.52114 18.3363 11.2347L20.4113 12.6291ZM26.3848 5.62708L27.9828 7.54967C28.6504 6.99479 29.8022 6.45542 31.4682 6.0207C33.0949 5.59626 35.0149 5.32114 37.041 5.16494C41.0946 4.85242 45.3207 5.0341 47.9447 5.29556L48.1926 2.80787L48.4404 0.320193C45.5903 0.0362043 41.0631 -0.159981 36.6566 0.179732C34.4526 0.34965 32.216 0.658166 30.2058 1.18269C28.235 1.69695 26.2698 2.47189 24.7868 3.70448L26.3848 5.62708ZM48.1926 2.80787L45.7049 3.05575C45.9663 5.6797 46.148 9.90582 45.8355 13.9599C45.6793 15.9861 45.4042 17.9066 44.9797 19.5338C44.545 21.2003 44.0055 22.353 43.4502 23.0216L45.3734 24.6189L47.2966 26.2162C48.5287 24.7326 49.3035 22.7671 49.8178 20.7959C50.3423 18.7853 50.6508 16.5484 50.8207 14.3442C51.1604 9.93737 50.9642 5.41016 50.6802 2.56L48.1926 2.80787ZM45.3734 24.6189L43.5439 22.9151C41.5764 25.0276 39.3731 26.9073 36.977 28.5174L38.3714 30.5925L39.7657 32.6675C42.4793 30.844 44.9746 28.7152 47.2028 26.3227L45.3734 24.6189ZM21.5593 40.88L19.7919 39.1118L12.1689 46.7315L13.9363 48.4997L15.7036 50.2678L23.3267 42.6481L21.5593 40.88ZM39.7304 11.2681L37.9626 9.50035L33.8981 13.5649L35.6659 15.3326L37.4337 17.1004L41.4982 13.0359L39.7304 11.2681Z" fill="white"/>
</svg>
